<?xml version="1.0" encoding="utf-8"?>
<!-- Generator: Adobe Illustrator 23.0.1, SVG Export Plug-In . SVG Version: 6.00 Build 0)  -->
<svg version="1.1" id="Layer_1" xmlns="http://www.w3.org/2000/svg" xmlns:xlink="http://www.w3.org/1999/xlink" x="0px" y="0px"
	 viewBox="0 0 70 70" style="enable-background:new 0 0 70 70;" xml:space="preserve">
<style type="text/css">
	.st0{fill-rule:evenodd;clip-rule:evenodd;fill:#24805A;}
	.st1{filter:url(#Adobe_OpacityMaskFilter);}
	.st2{fill-rule:evenodd;clip-rule:evenodd;fill:#FFFFFF;}
	.st3{mask:url(#mask-2_2_);fill-rule:evenodd;clip-rule:evenodd;fill:#494949;}
</style>
<title>Group 10 Copy</title>
<desc>Created with Sketch.</desc>
<g id="Revisiones_1_">
	<g id="Desktop-Copy-17_1_" transform="translate(-608.000000, -1179.000000)">
		<g id="Group-6-Copy" transform="translate(608.000000, 1179.000000)">
			<path id="Fill-1_1_" class="st0" d="M29.9,37.8h-2C16.3,37.8,6.9,46.9,6.9,58c0,0.9,0.8,1.7,1.6,1.7h40.6c0.9,0,1.6-0.8,1.6-1.7
				C50.8,46.9,41.5,37.8,29.9,37.8 M16.1,23c0-7.1,5.7-12.9,12.8-12.9c7.1,0,12.8,5.7,12.8,12.9s-5.7,12.9-12.8,12.9
				C21.8,35.9,16.1,30.1,16.1,23"/>
			<g id="Group-5" transform="translate(32.608696, 5.490592)">
				<g id="Clip-4">
				</g>
				<defs>
					<filter id="Adobe_OpacityMaskFilter" filterUnits="userSpaceOnUse" x="7" y="10.3" width="23.5" height="27.4">
						<feColorMatrix  type="matrix" values="1 0 0 0 0  0 1 0 0 0  0 0 1 0 0  0 0 0 1 0"/>
					</filter>
				</defs>
				<mask maskUnits="userSpaceOnUse" x="7" y="10.3" width="23.5" height="27.4" id="mask-2_2_">
					<g class="st1">
						<polygon id="path-1_2_" class="st2" points="7,10.3 30.4,10.3 30.4,37.7 7,37.7 						"/>
					</g>
				</mask>
				<path id="Fill-3" class="st3" d="M26.2,28.6L26.2,28.6l3.8-1c0.3-1.1,0.4-2.3,0.4-3.5v-0.4L27,21.9v-0.1
					c-0.1-0.4-0.3-0.9-0.3-1.3v-0.1l2-3.3C28,16,27.1,15,26.2,14.1l-3.7,1.3l-0.1-0.1c-0.3-0.3-0.8-0.4-1.1-0.6l-0.1-0.1l-0.9-3.9
					c-1.1-0.3-2.3-0.4-3.4-0.4h-0.1h-0.4l-1.7,3.5h-0.1c-0.4,0.1-0.8,0.3-1.3,0.3h-0.1l-0.7-0.4c0.3,1.2,0.4,2.3,0.4,3.6
					c0,0.9-0.1,1.7-0.3,2.6c1.1-1.1,2.6-1.9,4.3-1.9c3.2,0,5.9,2.7,5.9,5.9c0,3.3-2.6,5.9-5.9,5.9c-3,0-5.4-2.2-5.8-5.1
					c-1,2.1-2.5,3.9-4.3,5.4c4,1.6,7.5,4.3,10.1,7.6h0.3l1.7-3.5h0.1c0.4-0.1,0.8-0.3,1.3-0.3h0.1l3.3,2.1c1.1-0.7,2.1-1.5,3.1-2.5
					l-1.3-3.7l0.1-0.1C25.8,29.4,26,29,26.2,28.6"/>
			</g>
		</g>
	</g>
</g>
</svg>
