<?xml version="1.0" encoding="utf-8"?>
<!-- Generator: Adobe Illustrator 23.0.1, SVG Export Plug-In . SVG Version: 6.00 Build 0)  -->
<svg version="1.1" id="Layer_1" xmlns="http://www.w3.org/2000/svg" xmlns:xlink="http://www.w3.org/1999/xlink" x="0px" y="0px"
	 viewBox="0 0 70 70" style="enable-background:new 0 0 70 70;" xml:space="preserve">
<style type="text/css">
	.st0{fill-rule:evenodd;clip-rule:evenodd;fill:#24805A;}
	.st1{fill-rule:evenodd;clip-rule:evenodd;fill:#494949;}
</style>
<title>Group 10 Copy</title>
<desc>Created with Sketch.</desc>
<g id="Revisiones">
	<g id="Desktop-Copy-17" transform="translate(-954.000000, -1179.000000)">
		<g id="Group-5-Copy" transform="translate(954.000000, 1179.000000)">
			<path id="Fill-1" class="st0" d="M20.8,49.2C17,45.4,15,40.4,15,35c0-5.4,2-10.4,5.9-14.2c3.8-3.8,8.7-5.9,14.2-5.9
				c5.4,0,10.4,2,14.2,5.9c3.8,3.8,5.9,8.9,5.9,14.3c0,5.4-2,10.4-5.9,14.2c-3.8,3.8-8.8,5.9-14.2,5.9
				C29.6,55.1,24.6,53.1,20.8,49.2 M52.5,52.5c4.7-4.7,7.2-10.8,7.2-17.5c0-6.6-2.5-12.8-7.2-17.5S41.7,10.3,35,10.3
				c-6.6,0-12.8,2.5-17.5,7.2S10.3,28.3,10.3,35c0,6.6,2.5,12.8,7.2,17.5s10.8,7.2,17.5,7.2C41.6,59.7,47.8,57.1,52.5,52.5"/>
			<path id="Fill-3_1_" class="st1" d="M42,34h-7.3v-7.3c0-3.5-5.4-3.5-5.4,0v9.9c0,1.5,1.2,2.5,2.5,2.5h9.9
				C45.4,39.2,45.4,34,42,34"/>
		</g>
	</g>
</g>
</svg>
