<?xml version="1.0" encoding="utf-8"?>
<!-- Generator: Adobe Illustrator 23.0.1, SVG Export Plug-In . SVG Version: 6.00 Build 0)  -->
<svg version="1.1" id="Layer_1" xmlns="http://www.w3.org/2000/svg" xmlns:xlink="http://www.w3.org/1999/xlink" x="0px" y="0px"
	 viewBox="0 0 70 70" style="enable-background:new 0 0 70 70;" xml:space="preserve">
<style type="text/css">
	.st0{filter:url(#Adobe_OpacityMaskFilter);}
	.st1{fill-rule:evenodd;clip-rule:evenodd;fill:#FFFFFF;}
	.st2{mask:url(#mask-2_1_);fill-rule:evenodd;clip-rule:evenodd;fill:#24805A;}
	.st3{fill-rule:evenodd;clip-rule:evenodd;fill:#24805A;}
	.st4{fill-rule:evenodd;clip-rule:evenodd;fill:#494949;}
</style>
<title>Group 10 Copy</title>
<desc>Created with Sketch.</desc>
<g id="Revisiones">
	<g id="Desktop-Copy-17" transform="translate(-263.000000, -1179.000000)">
		<g id="Group-10-Copy" transform="translate(263.000000, 1179.000000)">
			<g id="Group-3" transform="translate(4.722222, 12.264151)">
				<g id="Clip-2">
				</g>
				<defs>
					<filter id="Adobe_OpacityMaskFilter" filterUnits="userSpaceOnUse" x="1.6" y="10.2" width="62.6" height="37.5">
						<feColorMatrix  type="matrix" values="1 0 0 0 0  0 1 0 0 0  0 0 1 0 0  0 0 0 1 0"/>
					</filter>
				</defs>
				<mask maskUnits="userSpaceOnUse" x="1.6" y="10.2" width="62.6" height="37.5" id="mask-2_1_">
					<g class="st0">
						<polygon id="path-1_1_" class="st1" points="1.6,10.2 64.3,10.2 64.3,47.7 1.6,47.7 						"/>
					</g>
				</mask>
				<path id="Fill-1" class="st2" d="M43.2,22.4h10.1L49.4,17h-6.2V22.4z M14.2,42.7H3.6c-1.1,0-1.9-0.9-1.9-1.9v-2.6
					c0-1.1,0.9-1.9,1.9-1.9h14.9l-2.2,1.9c-1.1,0.9-1.8,2.2-2,3.6L14.2,42.7z M62.3,42.7h-7.9l-0.1-0.9c-0.4-2.9-3-5.1-5.9-5.1
					c-3,0-5.5,2.2-5.9,5.1l-0.1,0.9H26.3l-0.1-0.9c-0.2-1.4-0.9-2.7-2-3.6l-2.2-1.9h15.2V13c0-1.5,1.3-2.8,2.8-2.8h8.1
					c2.7,0,5.1,1.3,6.6,3.5l5.3,7.7c0.9,1.3,1.4,2.8,1.4,4.4v10.5h1c1.1,0,1.9,0.9,1.9,1.9v2.6C64.3,41.9,63.4,42.7,62.3,42.7
					L62.3,42.7z M20.2,47.7c-2.8,0-5.1-2.3-5.1-5.1c0-2.8,2.3-5.1,5.1-5.1c2.8,0,5.1,2.3,5.1,5.1C25.4,45.5,23.1,47.7,20.2,47.7
					L20.2,47.7z M48.3,47.7c-2.8,0-5.1-2.3-5.1-5.1c0-2.8,2.3-5.1,5.1-5.1s5.1,2.3,5.1,5.1C53.5,45.5,51.2,47.7,48.3,47.7L48.3,47.7
					z"/>
			</g>
			<path id="Fill-4" class="st3" d="M15.8,25.1c-0.1,0-0.2,0-0.3,0l-4.1-1.2c-0.5-0.2-0.9-0.7-0.9-1.3V16c0-0.7,0.6-1.3,1.3-1.3
				c0.7,0,1.3,0.6,1.3,1.3v5.6l3.2,0.9c0.7,0.2,1.1,0.9,0.9,1.6C16.9,24.7,16.4,25.1,15.8,25.1"/>
			<path id="Fill-6" class="st3" d="M12.3,12.2c-5,0-9.1,4.1-9.1,9.1c0,5,4.1,9.1,9.1,9.1s9.1-4.1,9.1-9.1
				C21.5,16.3,17.4,12.2,12.3,12.2 M12.3,32.6C6.1,32.6,1,27.6,1,21.3C1,15.1,6.1,10,12.3,10s11.3,5.1,11.3,11.3
				C23.7,27.6,18.6,32.6,12.3,32.6"/>
			<path id="Fill-8" class="st4" d="M37.8,46.8H8.6c-1.1,0-1.9-0.9-1.9-1.9V33.9l1.4,0.4c1.3,0.4,2.6,0.6,4,0.6
				c7.5,0,13.7-6.1,13.7-13.6c0-1.5-0.2-2.9-0.7-4.3l-0.5-1.4h11.5c2,0,3.7,1.6,3.7,3.6v25.6C39.7,45.9,38.9,46.8,37.8,46.8"/>
		</g>
	</g>
</g>
</svg>
